<svg width="45" height="41" viewBox="0 0 45 41" fill="none" xmlns="http://www.w3.org/2000/svg">
<g filter="url(#filter0_d_134_133)">
<path d="M16.1406 3.53571C15.1795 3.53571 14.4062 4.32388 14.4062 5.30357V27.6964C14.4062 28.3152 14.3051 28.9118 14.11 29.4643H35.7969C36.758 29.4643 37.5312 28.6761 37.5312 27.6964V5.30357C37.5312 4.32388 36.758 3.53571 35.7969 3.53571H16.1406ZM9.20312 33C6.32695 33 4 30.6281 4 27.6964V5.89286C4 4.91317 4.77324 4.125 5.73438 4.125C6.69551 4.125 7.46875 4.91317 7.46875 5.89286V27.6964C7.46875 28.6761 8.24199 29.4643 9.20312 29.4643C10.1643 29.4643 10.9375 28.6761 10.9375 27.6964V5.30357C10.9375 2.37187 13.2645 0 16.1406 0H35.7969C38.673 0 41 2.37187 41 5.30357V27.6964C41 30.6281 38.673 33 35.7969 33H9.20312ZM16.7188 7.66071C16.7188 6.68103 17.492 5.89286 18.4531 5.89286H25.3906C26.3518 5.89286 27.125 6.68103 27.125 7.66071V13.5536C27.125 14.5333 26.3518 15.3214 25.3906 15.3214H18.4531C17.492 15.3214 16.7188 14.5333 16.7188 13.5536V7.66071ZM31.1719 5.89286H33.4844C34.4455 5.89286 35.2188 6.68103 35.2188 7.66071C35.2188 8.6404 34.4455 9.42857 33.4844 9.42857H31.1719C30.2107 9.42857 29.4375 8.6404 29.4375 7.66071C29.4375 6.68103 30.2107 5.89286 31.1719 5.89286ZM31.1719 11.7857H33.4844C34.4455 11.7857 35.2188 12.5739 35.2188 13.5536C35.2188 14.5333 34.4455 15.3214 33.4844 15.3214H31.1719C30.2107 15.3214 29.4375 14.5333 29.4375 13.5536C29.4375 12.5739 30.2107 11.7857 31.1719 11.7857ZM18.4531 17.6786H33.4844C34.4455 17.6786 35.2188 18.4667 35.2188 19.4464C35.2188 20.4261 34.4455 21.2143 33.4844 21.2143H18.4531C17.492 21.2143 16.7188 20.4261 16.7188 19.4464C16.7188 18.4667 17.492 17.6786 18.4531 17.6786ZM18.4531 23.5714H33.4844C34.4455 23.5714 35.2188 24.3596 35.2188 25.3393C35.2188 26.319 34.4455 27.1071 33.4844 27.1071H18.4531C17.492 27.1071 16.7188 26.319 16.7188 25.3393C16.7188 24.3596 17.492 23.5714 18.4531 23.5714Z" fill="#BFBFBF"/>
</g>
<defs>
<filter id="filter0_d_134_133" x="0" y="0" width="45" height="41" filterUnits="userSpaceOnUse" color-interpolation-filters="sRGB">
<feFlood flood-opacity="0" result="BackgroundImageFix"/>
<feColorMatrix in="SourceAlpha" type="matrix" values="0 0 0 0 0 0 0 0 0 0 0 0 0 0 0 0 0 0 127 0" result="hardAlpha"/>
<feOffset dy="4"/>
<feGaussianBlur stdDeviation="2"/>
<feComposite in2="hardAlpha" operator="out"/>
<feColorMatrix type="matrix" values="0 0 0 0 0 0 0 0 0 0 0 0 0 0 0 0 0 0 0.25 0"/>
<feBlend mode="normal" in2="BackgroundImageFix" result="effect1_dropShadow_134_133"/>
<feBlend mode="normal" in="SourceGraphic" in2="effect1_dropShadow_134_133" result="shape"/>
</filter>
</defs>
</svg>
