<svg width="10" height="10" viewBox="0 0 10 10" fill="none" xmlns="http://www.w3.org/2000/svg">
<g clip-path="url(#clip0_762_61)">
<path d="M0.416667 1.97927H1.55667C1.6461 2.30833 1.84132 2.59881 2.11222 2.80591C2.38312 3.01301 2.71463 3.12522 3.05562 3.12522C3.39662 3.12522 3.72813 3.01301 3.99903 2.80591C4.26993 2.59881 4.46515 2.30833 4.55458 1.97927H9.58333C9.69384 1.97927 9.79982 1.93538 9.87796 1.85724C9.9561 1.7791 10 1.67311 10 1.56261C10 1.4521 9.9561 1.34612 9.87796 1.26798C9.79982 1.18984 9.69384 1.14594 9.58333 1.14594H4.55458C4.46515 0.816886 4.26993 0.526402 3.99903 0.319303C3.72813 0.112205 3.39662 0 3.05562 0C2.71463 0 2.38312 0.112205 2.11222 0.319303C1.84132 0.526402 1.6461 0.816886 1.55667 1.14594H0.416667C0.30616 1.14594 0.200179 1.18984 0.122039 1.26798C0.0438987 1.34612 0 1.4521 0 1.56261C0 1.67311 0.0438987 1.7791 0.122039 1.85724C0.200179 1.93538 0.30616 1.97927 0.416667 1.97927ZM3.05542 0.833441C3.19963 0.833441 3.34061 0.876206 3.46052 0.956328C3.58043 1.03645 3.67389 1.15033 3.72908 1.28357C3.78427 1.41681 3.79871 1.56342 3.77057 1.70486C3.74244 1.84631 3.67299 1.97623 3.57102 2.07821C3.46904 2.18018 3.33911 2.24963 3.19767 2.27776C3.05623 2.3059 2.90961 2.29146 2.77638 2.23627C2.64314 2.18108 2.52926 2.08762 2.44914 1.96771C2.36901 1.8478 2.32625 1.70682 2.32625 1.56261C2.32647 1.36929 2.40336 1.18395 2.54006 1.04725C2.67676 0.910555 2.8621 0.833662 3.05542 0.833441Z" fill="#BFBFBF"/>
<path d="M9.58333 4.58287H8.44333C8.35405 4.25374 8.1589 3.96315 7.88803 3.75597C7.61715 3.54878 7.28561 3.43652 6.94458 3.43652C6.60356 3.43652 6.27201 3.54878 6.00114 3.75597C5.73026 3.96315 5.53512 4.25374 5.44583 4.58287H0.416667C0.30616 4.58287 0.200179 4.62677 0.122039 4.70491C0.0438987 4.78305 0 4.88903 0 4.99954C0 5.11004 0.0438987 5.21603 0.122039 5.29417C0.200179 5.37231 0.30616 5.4162 0.416667 5.4162H5.44583C5.53512 5.74534 5.73026 6.03593 6.00114 6.24311C6.27201 6.45029 6.60356 6.56255 6.94458 6.56255C7.28561 6.56255 7.61715 6.45029 7.88803 6.24311C8.1589 6.03593 8.35405 5.74534 8.44333 5.4162H9.58333C9.69384 5.4162 9.79982 5.37231 9.87796 5.29417C9.9561 5.21603 10 5.11004 10 4.99954C10 4.88903 9.9561 4.78305 9.87796 4.70491C9.79982 4.62677 9.69384 4.58287 9.58333 4.58287ZM6.94458 5.7287C6.80037 5.7287 6.65939 5.68594 6.53948 5.60582C6.41957 5.5257 6.32611 5.41182 6.27092 5.27858C6.21573 5.14534 6.20129 4.99873 6.22943 4.85728C6.25756 4.71584 6.32701 4.58591 6.42898 4.48394C6.53096 4.38196 6.66089 4.31252 6.80233 4.28438C6.94377 4.25625 7.09039 4.27069 7.22362 4.32588C7.35686 4.38106 7.47074 4.47452 7.55086 4.59443C7.63099 4.71435 7.67375 4.85532 7.67375 4.99954C7.67353 5.19286 7.59664 5.3782 7.45994 5.51489C7.32324 5.65159 7.1379 5.72848 6.94458 5.7287Z" fill="#BFBFBF"/>
<path d="M9.58333 8.02094H4.55458C4.46515 7.69189 4.26993 7.4014 3.99903 7.1943C3.72813 6.98721 3.39662 6.875 3.05562 6.875C2.71463 6.875 2.38312 6.98721 2.11222 7.1943C1.84132 7.4014 1.6461 7.69189 1.55667 8.02094H0.416667C0.30616 8.02094 0.200179 8.06484 0.122039 8.14298C0.0438987 8.22112 0 8.3271 0 8.43761C0 8.54812 0.0438987 8.6541 0.122039 8.73224C0.200179 8.81038 0.30616 8.85427 0.416667 8.85427H1.55667C1.6461 9.18333 1.84132 9.47381 2.11222 9.68091C2.38312 9.88801 2.71463 10.0002 3.05562 10.0002C3.39662 10.0002 3.72813 9.88801 3.99903 9.68091C4.26993 9.47381 4.46515 9.18333 4.55458 8.85427H9.58333C9.69384 8.85427 9.79982 8.81038 9.87796 8.73224C9.9561 8.6541 10 8.54812 10 8.43761C10 8.3271 9.9561 8.22112 9.87796 8.14298C9.79982 8.06484 9.69384 8.02094 9.58333 8.02094ZM3.05542 9.16678C2.9112 9.16678 2.77022 9.12401 2.65031 9.04389C2.5304 8.96377 2.43694 8.84989 2.38175 8.71665C2.32657 8.58341 2.31213 8.4368 2.34026 8.29536C2.3684 8.15391 2.43784 8.02399 2.53982 7.92201C2.64179 7.82003 2.77172 7.75059 2.91316 7.72245C3.05461 7.69432 3.20122 7.70876 3.33446 7.76395C3.46769 7.81914 3.58157 7.91259 3.6617 8.0325C3.74182 8.15242 3.78458 8.29339 3.78458 8.43761C3.78425 8.63089 3.70732 8.81617 3.57065 8.95284C3.43398 9.08952 3.2487 9.16644 3.05542 9.16678Z" fill="#BFBFBF"/>
</g>
<defs>
<clipPath id="clip0_762_61">
<rect width="10" height="10" fill="white"/>
</clipPath>
</defs>
</svg>
