<svg width="14" height="14" viewBox="0 0 14 14" fill="none" xmlns="http://www.w3.org/2000/svg">
<path fill-rule="evenodd" clip-rule="evenodd" d="M7.01725 0.333252C3.34459 0.333252 0.36792 3.30992 0.36792 6.98259C0.36792 9.91992 2.27259 12.4126 4.91525 13.2926C5.24792 13.3526 5.36792 13.1479 5.36792 12.9719C5.36792 12.8139 5.36259 12.3953 5.36059 11.8413C3.51059 12.2426 3.11992 10.9493 3.11992 10.9493C2.81859 10.1813 2.38192 9.97659 2.38192 9.97659C1.77859 9.56392 2.42792 9.57325 2.42792 9.57325C3.09592 9.61992 3.44592 10.2586 3.44592 10.2586C4.03925 11.2746 5.00325 10.9813 5.38059 10.8113C5.44125 10.3813 5.61459 10.0879 5.80392 9.92192C4.32792 9.75459 2.77592 9.18392 2.77592 6.63525C2.77592 5.91059 3.03525 5.31592 3.45859 4.85192C3.39125 4.68325 3.16125 4.00659 3.52459 3.09192C3.52459 3.09192 4.08259 2.91259 5.35259 3.77259C5.89498 3.62503 6.45448 3.54972 7.01659 3.54859C7.57871 3.5495 8.13823 3.62482 8.68059 3.77259C9.95125 2.91192 10.5086 3.09192 10.5086 3.09192C10.8719 4.00659 10.6439 4.68325 10.5746 4.85192C11.0013 5.31592 11.2573 5.90992 11.2573 6.63525C11.2573 9.19059 9.70392 9.75192 8.22259 9.91659C8.45925 10.1219 8.67259 10.5273 8.67259 11.1473C8.67259 12.0366 8.66459 12.7539 8.66459 12.9719C8.66459 13.1499 8.78325 13.3566 9.12259 13.2913C11.7639 12.4099 13.6666 9.91925 13.6666 6.98259C13.6666 3.30992 10.6899 0.333252 7.01725 0.333252Z" fill="white"/>
</svg>
