<svg width="16" height="16" viewBox="0 0 16 16" fill="none" xmlns="http://www.w3.org/2000/svg">
<path d="M7.99941 4.91797C7.18184 4.91797 6.39775 5.24275 5.81964 5.82086C5.24153 6.39897 4.91675 7.18306 4.91675 8.00064C4.91675 8.81821 5.24153 9.6023 5.81964 10.1804C6.39775 10.7585 7.18184 11.0833 7.99941 11.0833C8.81699 11.0833 9.60108 10.7585 10.1792 10.1804C10.7573 9.6023 11.0821 8.81821 11.0821 8.00064C11.0821 7.18306 10.7573 6.39897 10.1792 5.82086C9.60108 5.24275 8.81699 4.91797 7.99941 4.91797ZM7.99941 10.0026C7.46827 10.0026 6.95889 9.79164 6.58332 9.41607C6.20774 9.04049 5.99675 8.53111 5.99675 7.99997C5.99675 7.46883 6.20774 6.95944 6.58332 6.58387C6.95889 6.2083 7.46827 5.9973 7.99941 5.9973C8.53055 5.9973 9.03994 6.2083 9.41551 6.58387C9.79109 6.95944 10.0021 7.46883 10.0021 7.99997C10.0021 8.53111 9.79109 9.04049 9.41551 9.41607C9.03994 9.79164 8.53055 10.0026 7.99941 10.0026Z" fill="#FF39FC"/>
<path d="M11.204 5.52327C11.6009 5.52327 11.9227 5.20151 11.9227 4.8046C11.9227 4.4077 11.6009 4.08594 11.204 4.08594C10.8071 4.08594 10.4854 4.4077 10.4854 4.8046C10.4854 5.20151 10.8071 5.52327 11.204 5.52327Z" fill="#FF39FC"/>
<path d="M13.6886 4.07408C13.5342 3.67554 13.2984 3.31361 12.9961 3.01146C12.6938 2.70931 12.3318 2.4736 11.9332 2.31942C11.4668 2.14432 10.974 2.04965 10.4759 2.03942C9.83389 2.01142 9.63055 2.00342 8.00255 2.00342C6.37455 2.00342 6.16589 2.00342 5.52922 2.03942C5.03148 2.04912 4.53906 2.14382 4.07322 2.31942C3.67451 2.47342 3.3124 2.70906 3.01011 3.01124C2.70782 3.31341 2.47204 3.67543 2.31789 4.07408C2.14276 4.54049 2.0483 5.03331 2.03855 5.53142C2.00989 6.17275 2.00122 6.37608 2.00122 8.00475C2.00122 9.63275 2.00122 9.84008 2.03855 10.4781C2.04855 10.9768 2.14255 11.4688 2.31789 11.9361C2.47247 12.3346 2.70848 12.6965 3.01084 12.9986C3.3132 13.3007 3.67526 13.5365 4.07389 13.6908C4.53884 13.8729 5.03147 13.9743 5.53055 13.9908C6.17255 14.0188 6.37589 14.0274 8.00389 14.0274C9.63189 14.0274 9.84055 14.0274 10.4772 13.9908C10.9753 13.9806 11.468 13.8862 11.9346 13.7114C12.3331 13.5569 12.695 13.321 12.9972 13.0187C13.2994 12.7165 13.5353 12.3546 13.6899 11.9561C13.8652 11.4894 13.9592 10.9974 13.9692 10.4988C13.9979 9.85742 14.0066 9.65408 14.0066 8.02542C14.0066 6.39675 14.0066 6.19008 13.9692 5.55208C13.9615 5.04693 13.8665 4.54692 13.6886 4.07408ZM12.8766 10.4288C12.8723 10.813 12.8021 11.1936 12.6692 11.5541C12.5691 11.8133 12.4158 12.0488 12.2193 12.2452C12.0227 12.4417 11.7872 12.5948 11.5279 12.6948C11.1714 12.827 10.7948 12.8972 10.4146 12.9021C9.78122 12.9314 9.60255 12.9388 7.97855 12.9388C6.35322 12.9388 6.18722 12.9388 5.54189 12.9021C5.16184 12.8974 4.78544 12.8273 4.42922 12.6948C4.16901 12.5954 3.93256 12.4425 3.73515 12.2461C3.53774 12.0496 3.38378 11.8138 3.28322 11.5541C3.15218 11.1975 3.0821 10.8213 3.07589 10.4414C3.04722 9.80808 3.04055 9.62942 3.04055 8.00542C3.04055 6.38075 3.04055 6.21475 3.07589 5.56875C3.0802 5.18477 3.15032 4.80436 3.28322 4.44408C3.48655 3.91808 3.90322 3.50408 4.42922 3.30275C4.78561 3.17084 5.1619 3.10073 5.54189 3.09542C6.17589 3.06675 6.35389 3.05875 7.97855 3.05875C9.60322 3.05875 9.76989 3.05875 10.4146 3.09542C10.7948 3.09999 11.1715 3.17013 11.5279 3.30275C11.7872 3.40293 12.0226 3.55622 12.2192 3.75277C12.4158 3.94932 12.569 4.1848 12.6692 4.44408C12.8003 4.80072 12.8703 5.17686 12.8766 5.55675C12.9052 6.19075 12.9126 6.36875 12.9126 7.99342C12.9126 9.61742 12.9126 9.79208 12.8839 10.4294H12.8766V10.4288Z" fill="#FF39FC"/>
</svg>
