<svg width="20" height="22" viewBox="0 0 20 22" fill="none" xmlns="http://www.w3.org/2000/svg">
<path d="M8.51172 4.15745L13.3086 9.77679C13.5898 10.1063 13.75 10.5593 13.75 11.026C13.75 11.4928 13.5898 11.9458 13.3086 12.2753L8.51172 17.8946C8.26172 18.1875 7.92578 18.3476 7.57422 18.3476C6.84375 18.3476 6.25 17.6521 6.25 16.7964V13.9547H1.25C0.558594 13.9547 0 13.3003 0 12.4904V9.56172C0 8.75176 0.558594 8.09739 1.25 8.09739H6.25V5.2557C6.25 4.39998 6.84375 3.70443 7.57422 3.70443C7.92578 3.70443 8.26172 3.86917 8.51172 4.15745ZM13.75 18.3476H16.25C16.9414 18.3476 17.5 17.6933 17.5 16.8833V5.16875C17.5 4.3588 16.9414 3.70443 16.25 3.70443H13.75C13.0586 3.70443 12.5 3.05006 12.5 2.24011C12.5 1.43016 13.0586 0.775787 13.75 0.775787H16.25C18.3203 0.775787 20 2.74347 20 5.16875V16.8833C20 19.3086 18.3203 21.2763 16.25 21.2763H13.75C13.0586 21.2763 12.5 20.6219 12.5 19.812C12.5 19.002 13.0586 18.3476 13.75 18.3476Z" fill="#BFBFBF"/>
</svg>
