<svg width="14" height="12" viewBox="0 0 14 12" fill="none" xmlns="http://www.w3.org/2000/svg">
<path d="M12.0886 3.33144C12.0973 3.44811 12.0973 3.56411 12.0973 3.68011C12.0973 7.23011 9.39525 11.3208 4.45725 11.3208C2.93592 11.3208 1.52259 10.8801 0.333252 10.1148C0.549252 10.1394 0.757252 10.1481 0.981919 10.1481C2.19058 10.151 3.36502 9.74687 4.31592 9.00078C3.75553 8.99063 3.2123 8.80575 2.76208 8.47193C2.31185 8.13812 1.97711 7.67204 1.80459 7.13878C1.97059 7.16344 2.13725 7.18011 2.31192 7.18011C2.55259 7.18011 2.79459 7.14678 3.01925 7.08878C2.41109 6.96599 1.86423 6.63634 1.47166 6.1559C1.07909 5.67546 0.865047 5.07388 0.865919 4.45344V4.42011C1.22392 4.61944 1.63925 4.74411 2.07925 4.76078C1.71064 4.51583 1.4084 4.18346 1.19948 3.7933C0.990558 3.40315 0.881461 2.96735 0.881919 2.52478C0.881919 2.02611 1.01459 1.56878 1.24725 1.17011C1.92201 2.00012 2.76359 2.67915 3.71748 3.16322C4.67136 3.64728 5.71629 3.92559 6.78459 3.98011C6.74325 3.78011 6.71792 3.57278 6.71792 3.36478C6.71774 3.01208 6.78708 2.66282 6.92197 2.33694C7.05686 2.01106 7.25465 1.71496 7.50404 1.46557C7.75344 1.21618 8.04953 1.01838 8.37541 0.883496C8.70129 0.748607 9.05056 0.679268 9.40325 0.679444C10.1766 0.679444 10.8746 1.00344 11.3653 1.52744C11.9664 1.41119 12.5429 1.19173 13.0693 0.878777C12.8689 1.49932 12.4491 2.02551 11.8886 2.35878C12.4218 2.29796 12.9429 2.15775 13.4346 1.94278C13.0673 2.47818 12.6123 2.94767 12.0886 3.33144Z" fill="#1787D8"/>
</svg>
