<svg viewBox="0 0 48 48" fill="none" xmlns="http://www.w3.org/2000/svg" id="Restart-Alt--Streamline-Outlined-Material-Symbols"><desc>Restart Alt Streamline Icon: https://streamlinehq.com</desc><g id="restart-alt"><path id="Vector" d="M22.55 41.8999c-4.1 -0.3333 -7.55 -2.0167 -10.35 -5.05 -2.8 -3.0333 -4.2 -6.6333 -4.2 -10.8 0 -2.5667 0.59167 -4.9833 1.775 -7.25 1.1833 -2.2667 2.8417 -4.1167 4.975 -5.55l2.15 2.15c-1.8667 1.1 -3.3167 2.6083 -4.35 4.525 -1.0333 1.9167 -1.55 3.9583 -1.55 6.125 0 3.3333 1.1 6.2167 3.3 8.65 2.2 2.4333 4.95 3.8333 8.25 4.2v3Zm3 0v-3c3.3333 -0.4 6.0833 -1.8083 8.25 -4.225 2.1667 -2.4167 3.25 -5.2917 3.25 -8.625 0 -3.6333 -1.2583 -6.7083 -3.775 -9.225 -2.5167 -2.5167 -5.5917 -3.775 -9.225 -3.775h-1l3 3 -2.15 2.15 -6.65 -6.65 6.65 -6.65 2.15 2.15 -3 3h1c4.4667 0 8.25 1.5583 11.35 4.675 3.1 3.1167 4.65 6.8917 4.65 11.325 0 4.1667 -1.3917 7.7667 -4.175 10.8 -2.7833 3.0333 -6.225 4.7167 -10.325 5.05Z" fill="#000000" stroke-width="1"></path></g></svg>